# xmcd CD database file
#
# Track frame offsets:
#	150
#	10540
#	29417
#	47075
#	66000
#	77872
#	88762
#	99050
#	107847
#	122490
#	135952
#	152300
#	162640
#	172947
#	185350
#	194345
#	206017
#	216357
#	227582
#	238782
#	248500
#	266202
#	278770
#	292772
#	299177
#	310005
#	321095
#	331427
#
# Disc length: 4547 seconds
#
# Revision: 0
# Processed by: cddbd v1.5.1PL0 Copyright (c) Steve Scherf et al.
# Submitted via: CDex 1.50
#
DISCID=8511c11c
DTITLE=Eric Clapton - Anthology 1963-1965
DYEAR=1900
DGENRE=Blues
TTITLE0=Let It Rock
TTITLE1=Who Do You Love
TTITLE2=Mister DownChild
TTITLE3=Take It Easy Baby
TTITLE4=Baby What's Wrong
TTITLE5=Boom Boom
TTITLE6=Honey In Your Hips
TTITLE7=Talkin' Bout You
TTITLE8=Highway 69
TTITLE9=Too Much Monkey Business
TTITLE10=Louse
TTITLE11=I Wish You Would
TTITLE12=A Certain Girl
TTITLE13=Good Morning Little School Girl
TTITLE14=I Ain't Got You
TTITLE15=Got To Hurry
TTITLE16=Putty <In Your Hands>
TTITLE17=Sweet Music
TTITLE18=For Your Love
TTITLE19=I'm Your Witchdoctor
TTITLE20=Telephone Blues
TTITLE21=On Top Of The World
TTITLE22=Draggin' My Tail
TTITLE23=Choker
TTITLE24=Miles Road
TTITLE25=Snake Drive
TTITLE26=West Coast Idea
TTITLE27=Tribute To Elmore
EXTD=
EXTT0=
EXTT1=
EXTT2=
EXTT3=
EXTT4=
EXTT5=
EXTT6=
EXTT7=
EXTT8=
EXTT9=
EXTT10=
EXTT11=
EXTT12=
EXTT13=
EXTT14=
EXTT15=
EXTT16=
EXTT17=
EXTT18=
EXTT19=
EXTT20=
EXTT21=
EXTT22=
EXTT23=
EXTT24=
EXTT25=
EXTT26=
EXTT27=
PLAYORDER=
